<?xml version="1.0" encoding="UTF-8"?>
<!DOCTYPE svg PUBLIC "-//W3C//DTD SVG 1.1//EN" "http://www.w3.org/Graphics/SVG/1.1/DTD/svg11.dtd">
<!-- Creator: CorelDRAW -->
<svg xmlns="http://www.w3.org/2000/svg" xml:space="preserve" width="177.817mm" height="28.3053mm" version="1.1" style="shape-rendering:geometricPrecision; text-rendering:geometricPrecision; image-rendering:optimizeQuality; fill-rule:evenodd; clip-rule:evenodd"
viewBox="0 0 18008.27 2866.6"
 xmlns:xlink="http://www.w3.org/1999/xlink"
 xmlns:xodm="http://www.corel.com/coreldraw/odm/2003">
 <defs>
  <style type="text/css">
   <![CDATA[
    .fil3 {fill:#C6D92C}
    .fil2 {fill:#E8EAED;fill-rule:nonzero}
    .fil1 {fill:#E8EAED;fill-rule:nonzero}
    .fil0 {fill:white;fill-rule:nonzero}
   ]]>
  </style>
 </defs>
 <g id="Camada_x0020_1">
  <metadata id="CorelCorpID_0Corel-Layer"/>
  <g id="_2969853762080">
   <path class="fil0" d="M3505.85 1168.81l0 -88.79c0,-75.86 -8.28,-151.19 -24.76,-225.25 -15.46,-69.59 -43.45,-134.12 -86,-191.36 -43.75,-58.85 -102.24,-101.54 -168.31,-132.38 -85.7,-40.02 -190.95,-50.43 -284.47,-50.43 -134.73,0 -273.04,7.72 -405.61,32.68 -82.31,15.51 -179.11,35.1 -256.73,67.04l-42.21 17.39 -66.57 -465.97 24.5 -10.91c91.56,-40.7 216.99,-64.33 315.41,-81.91 155.56,-27.75 314.27,-38.92 472.18,-38.92 165.46,0 340.54,17.84 496.35,76.53 126.4,47.59 241.39,117.94 331.51,219.58 86.34,97.38 144.86,211.36 179.18,336.76 37.55,137 52.48,279.71 52.48,421.54l0 1694.15 -29.66 4.93c-57.21,9.49 -114.42,18.86 -171.66,28.14 -83.01,13.53 -166.57,24.27 -250.12,33.56 -100.03,11.1 -200.29,20.3 -300.62,28.25 -107.4,8.5 -215.12,12.92 -322.82,12.92 -142.04,0 -284.91,-13.49 -423.12,-47.11 -121.87,-29.62 -238.08,-77.98 -340.08,-151.63 -99.69,-71.98 -174.28,-166.17 -226.43,-277.4 -59.63,-127.2 -80.16,-269.88 -80.16,-409.33 0,-138.18 25.73,-275.02 94.22,-396.32 62.49,-110.73 147.71,-200.55 255.12,-268.57 113.11,-71.64 239.31,-118.68 369.6,-147.98 143.72,-32.35 290.66,-46.97 437.89,-46.97 50.77,0 101.51,2.82 152,7.85 49.87,5 99.59,11.78 148.88,20.9 40.3,7.45 80.59,15.1 120.8,23.16 9.69,1.9 19.45,3.86 29.22,5.83zm0 1188.2l0 -741.79c-41.63,-16 -96.16,-25.36 -136.37,-31.64 -89.56,-13.93 -183.03,-17.48 -273.56,-17.48 -74.66,0 -149.36,5.6 -223.38,15.03 -72.57,9.3 -143.21,28.62 -209.11,60.73 -60.56,29.53 -112.34,70.26 -154.05,123.18 -44.97,57.08 -58.95,129.62 -58.95,200.76 0,127.95 31.41,255.18 146.83,325.55 123.69,75.4 284.85,94.63 426.95,94.63 99.09,0 198.51,-1.78 297.46,-7.59 60.7,-3.6 123.89,-9.4 184.18,-21.38z"/>
   <path class="fil0" d="M4996.69 554.92l0 2245.11 -547.17 0 0 -2610.18 23.35 -8.49c137,-49.83 282.16,-86.07 424.56,-116.57 186.67,-40.03 380.04,-54.57 570.67,-54.57 48.09,0 96.4,3.22 144.21,7.86 53.08,5.13 105.99,12.01 158.58,20.77 47.42,7.91 94.79,16.37 141.94,25.84 32.55,6.51 67.45,13.69 98.96,24.15l29.69 9.86 -96 486.08 -38.96 -14.16c-56.57,-20.57 -123.41,-34.63 -182.23,-47.32 -104.89,-22.61 -220.86,-27.34 -327.9,-27.34 -86.19,0 -171.93,9.2 -256.18,27.34 -47.62,10.27 -95.94,20.31 -143.52,31.61z"/>
   <path class="fil1" d="M7036.55 2385.97c127,0 301.76,-10.34 415.64,-72.45 85.19,-46.43 122.3,-118.44 122.3,-214.61 0,-104.06 -40.12,-185.96 -123.88,-247.97 -124.52,-92.24 -304.57,-168.35 -447.82,-225.95 -99.45,-40 -198.23,-81.75 -295.84,-126.11 -90.09,-40.94 -175.96,-92.07 -251.49,-156.3 -72.51,-61.64 -130.06,-135.93 -172.61,-221.09 -48.92,-97.84 -65.19,-209.55 -65.19,-317.96 0,-238.91 86.54,-439.17 274.57,-588.48 207.37,-164.65 474.83,-215.05 733.77,-215.05 76.6,0 153.18,4.36 229.32,13.01 71.03,8.09 141.97,18.13 212.33,31.07 58.52,10.81 117.1,23.29 174.52,39.09 39.47,10.88 79.93,22.45 118.25,36.88l28.59 10.74 -103.18 485.6 -41.64 -22.21c-67.91,-36.21 -158.88,-61.78 -233.07,-81.48 -123.48,-32.84 -257.73,-42.34 -385.11,-42.34 -115.09,0 -229.21,20.5 -331.45,75.17 -87.64,46.84 -129.72,117.74 -129.72,217.03 0,47.61 8.12,94.88 29.53,137.73 21.57,43.15 54.63,78.72 92.47,108.18 49.7,38.7 106.97,69.7 164.29,95.47 79.32,35.7 161.23,66.97 243.43,96.33 115.19,43.59 229.32,90.12 340.68,141.97 93.99,43.76 183.78,98.22 261.86,166.77 74.46,65.36 131.2,144.36 170.45,235.35 44.89,104.02 59.26,221.6 59.26,334.07 0,243.33 -86.8,447.25 -289.24,587.27 -226.62,156.77 -532,195.76 -801.01,195.76 -179.89,0 -389.61,-9.2 -563.01,-60.34 -88.96,-26.24 -190.12,-54.53 -275.32,-90.99l-26.81 -11.51 101.71 -478.45 38.59 14.46c85.96,32.25 173.34,62.04 260.18,91.81 142.53,48.85 315.04,59.53 464.67,59.53z"/>
   <path class="fil2" d="M10908.68 1433.28c0,198.78 -26.74,397.93 -94.29,585.5 -59.99,166.7 -146.64,320.28 -265.62,452.08 -114.78,127.17 -251.79,224.82 -409.03,292.97 -163.85,71 -337.7,102.77 -515.9,102.77 -178.21,0 -352.06,-31.77 -515.9,-102.77 -157.24,-68.15 -294.21,-165.8 -409,-292.97 -118.99,-131.8 -205.63,-285.38 -265.62,-452.08 -67.55,-187.57 -94.29,-386.72 -94.29,-585.5 0,-198.2 27.52,-395.64 94.22,-582.81 59.73,-167.6 146.17,-322.39 265.69,-454.76 114.78,-127.14 251.79,-224.82 409,-292.94 163.84,-71 337.69,-102.77 515.9,-102.77 178.2,0 352.05,31.81 515.9,102.77 157.24,68.15 294.24,165.77 409.03,292.94 119.52,132.41 205.96,287.19 265.69,454.76 66.7,187.18 94.22,384.61 94.22,582.81zm-567.67 0c0,-241.89 -44.3,-496.27 -194.92,-692.64 -131.49,-171.47 -307.15,-249.81 -522.24,-249.81 -215.09,0 -390.75,78.35 -522.21,249.81 -150.63,196.36 -194.95,450.71 -194.95,692.64 0,241.92 44.33,496.3 194.95,692.67 131.46,171.47 307.12,249.78 522.21,249.78 215.09,0 390.75,-78.32 522.24,-249.78 150.59,-196.36 194.92,-450.77 194.92,-692.67z"/>
   <path class="fil0" d="M12749.12 1168.81l0 -88.79c0,-75.86 -8.28,-151.19 -24.76,-225.25 -15.46,-69.59 -43.46,-134.12 -86,-191.36 -43.75,-58.85 -102.24,-101.54 -168.31,-132.38 -85.7,-40.02 -190.96,-50.43 -284.48,-50.43 -134.72,0 -273.04,7.72 -405.6,32.68 -82.32,15.51 -179.11,35.1 -256.73,67.04l-42.21 17.39 -66.57 -465.97 24.49 -10.91c91.57,-40.7 217,-64.33 315.42,-81.91 155.56,-27.75 314.27,-38.92 472.18,-38.92 165.45,0 340.54,17.84 496.34,76.53 126.4,47.59 241.4,117.94 331.52,219.58 86.34,97.38 144.85,211.36 179.18,336.76 37.54,137 52.48,279.71 52.48,421.54l0 1694.15 -29.66 4.93c-57.21,9.49 -114.42,18.86 -171.67,28.14 -83.01,13.53 -166.57,24.27 -250.12,33.56 -100.02,11.1 -200.28,20.3 -300.61,28.25 -107.41,8.5 -215.12,12.92 -322.83,12.92 -142.04,0 -284.9,-13.49 -423.12,-47.11 -121.86,-29.62 -238.07,-77.98 -340.07,-151.63 -99.69,-71.98 -174.28,-166.17 -226.43,-277.4 -59.63,-127.2 -80.16,-269.88 -80.16,-409.33 0,-138.18 25.73,-275.02 94.22,-396.32 62.48,-110.73 147.71,-200.55 255.12,-268.57 113.11,-71.64 239.31,-118.68 369.6,-147.98 143.72,-32.35 290.65,-46.97 437.89,-46.97 50.77,0 101.5,2.82 152,7.85 49.86,5 99.59,11.78 148.88,20.9 40.3,7.45 80.59,15.1 120.79,23.16 9.7,1.9 19.46,3.86 29.23,5.83zm0 1188.2l0 -741.79c-41.63,-16 -96.16,-25.36 -136.37,-31.64 -89.56,-13.93 -183.03,-17.48 -273.57,-17.48 -74.66,0 -149.35,5.6 -223.37,15.03 -72.57,9.3 -143.21,28.62 -209.11,60.73 -60.56,29.53 -112.34,70.26 -154.05,123.18 -44.97,57.08 -58.95,129.62 -58.95,200.76 0,127.95 31.41,255.18 146.83,325.55 123.69,75.4 284.84,94.63 426.95,94.63 99.09,0 198.51,-1.78 297.46,-7.59 60.7,-3.6 123.88,-9.4 184.18,-21.38z"/>
   <path class="fil0" d="M15336.35 2323.63l0 -2257.06 547.17 0 0 2648.87 -26.88 6.71c-142.94,35.77 -290.11,62.71 -435.27,87.61 -206.13,35.33 -419.2,46.61 -628.11,46.61 -178.21,0 -365.91,-21.98 -531.03,-92.47 -138.48,-59.09 -259.01,-145.26 -351.99,-264.24 -92.57,-118.48 -154.02,-254.35 -190.79,-399.74 -41.41,-163.78 -57.38,-334.1 -57.38,-502.78l0 -1530.57 547.17 0 0 1428.16c0,206.56 20.1,502.27 146.74,675.39 113.58,155.25 306.18,195.39 488.49,195.39 52.21,0 104.42,-1.81 156.5,-5.07 50.77,-3.15 101.47,-7.21 152.03,-12.65 43.28,-4.66 86.57,-9.63 129.76,-15.26 15.54,-2.02 35.67,-4.7 53.58,-8.89z"/>
  </g>
  <path class="fil3" d="M1377.05 2807.85l-113.73 -344.29c-19.64,-57.53 -36.04,-125.57 -68.05,-162.33 -19.17,-22.03 -34.4,-42.43 -52.07,-63.11 -18.1,-21.19 -34.37,-45.53 -52.82,-61.77l157.99 470.38 -501.99 -289.93c22.89,-21.57 113.32,-67.06 147.37,-87.59l454.51 -258.03c-15.26,-18.5 -118.94,-70.56 -148.99,-88.17l-453.87 -262.92 499.94 -290.49 -156.19 471.74c57.07,-58.56 117.42,-121.01 144.2,-199.95 24.17,-71.23 138.79,-395.2 143.67,-430.02 -118.18,57.81 -550.3,321.51 -687.2,398.94 -115.74,65.48 -229.66,131.76 -344.17,197.26 -16.98,9.72 -329.01,184.48 -345.66,202.28l1377.05 798zm-740.86 -515.83l0.06 -640.71c-1.34,0.97 -4.83,2.47 -3.81,3.01 1.01,0.53 -2.87,2.31 -3.62,3.04 -0.73,0.72 -2.51,2.22 -3.36,3.11l-82.98 113.53c-25.51,23.9 -364.23,203.47 -401.11,234.91 22.78,19.4 88.03,51.98 118.68,70.06l376.13 213.06zm567.41 -282.17c-16.07,-20.21 -437.53,-251.37 -491.75,-285.32 -11.66,89.38 -1.73,256.72 -1.73,354.43 0,66.04 10.96,113.35 -19.86,159.48 -22.57,33.8 -55.86,74.95 -72.12,108.91l585.46 -337.5z"/>
  <path class="fil3" d="M18008.27 1787.03l-355.03 -73.64c-59.65,-11.77 -126.78,-31.58 -174.62,-22.24 -28.66,5.59 -53.95,8.58 -80.68,13.53 -27.4,5.07 -56.63,7 -79.92,14.87l486.36 98.36 -502.08 289.77c-7.24,-30.59 -1.43,-131.66 -2.18,-171.42l3.81 -522.63c-23.66,3.97 -120.59,67.72 -150.86,84.94l-454.63 261.61 -1.59 -578.21 330.43 371.13c-22.17,-78.71 -46.09,-162.2 -101.05,-224.86 -49.59,-56.55 -272.86,-317.8 -300.57,-339.43 -9.02,131.25 3.27,637.33 1.89,794.6 -1.16,132.97 -0.72,264.77 -1.25,396.69 -0.08,19.58 -4.74,377.18 2.34,400.49l1379.61 -793.57zm-817.15 383.7l-554.84 -320.4c0.17,1.63 -0.27,5.42 0.7,4.79 0.96,-0.61 0.57,3.64 0.83,4.66 0.25,0.98 0.66,3.27 1,4.47l56.83 128.63c7.94,34.05 -5.9,417.17 2.89,464.82 28.18,-10.03 89.04,-50.24 120.02,-67.75l372.58 -219.21zm39.33 -632.47c-25.54,3.8 -436.46,253.22 -492.96,283.19 71.58,54.79 221.46,129.86 306.07,178.72 57.2,33.03 103.64,47.18 128.18,96.94 17.99,36.45 36.99,85.86 58.26,116.91l0.45 -675.76z"/>
 </g>
</svg>
